<svg xmlns="http://www.w3.org/2000/svg" viewBox="0 0 815.5 119.9"><path d="M55 30.8l22.2 54.89-33.55-26.45L55 30.8zm39.5 67.59L60.3 16c-1-2.4-2.9-3.6-5.3-3.6s-4.5 1.2-5.4 3.6L12 106.3h12.85l14.86-37.21L84.1 104.9c1.8 1.5 3.1 2.1 4.7 2.1 3.4 0 6.3-2.5 6.3-6.1 0-.6-.2-1.51-.6-2.51m677.6 9.51c-26 0-41.6-9.51-41.6-28.61 0-9.1 5.2-17.74 15.2-21.79-8.1-5.02-12.3-12.1-12.3-20 0-17.3 13.6-25.5 39-25.5 8.5 0 20.5 1 30.5 3.2l-1.4 10.3c-10.6-1.6-20.5-2.6-30.1-2.6-16.5 0-25.3 4.5-25.3 15.2 0 8.5 8.1 15.22 18.9 15.22h21.8c3 0 5.4 2.37 5.4 5.3 0 3.07-2.4 5.44-5.4 5.44h-23.5c-12.3 0-20.1 6.03-20.1 15.23 0 13.5 12.7 17.6 28.6 17.6 8.7 0 20.4-1.1 29.9-3.4l1.8 10.21c-9.1 2.5-20.9 4.2-31.4 4.2m-143.5-1.5c-3.5 0-6.3-3-6.3-6.3V13.4H635v81.59h50.5v11.41h-56.9zm-91.3-42.2h-31.5v31.59h31.5c10.7 0 17.3-6.7 17.3-16.1 0-8.8-6.8-15.49-17.3-15.49M531.2 24h-25.4v29.73h25.4c10.1 0 17.5-6.43 17.5-15.33 0-8.8-6.4-14.4-17.5-14.4m6.2 82.4h-37.9c-3.7 0-6.5-2.8-6.5-6.3V19.7c0-3.4 2.8-6.3 6.5-6.3h31.4c19.2 0 30.7 9.3 30.7 24 0 8-4.8 15.35-12 19.68 10.7 3.21 18 12.01 18 22.61 0 14.8-12.4 26.71-30.2 26.71m-120.8-93h12.7v93h-12.7v-93zm-94.5 94.5c-12.3 0-25.1-2.5-37.1-7l2.9-10.01c11 3.5 23 6 34.2 6 15.5 0 23.6-5.5 23.6-13.2 0-6.9-6.3-10.4-27.9-20.47-21.7-10.05-30.2-16.42-30.2-29.02 0-15.8 12.3-22.2 35.5-22.2 9.6 0 24.4 1.9 32.9 4.5l-1.9 10.3c-9.4-2.2-21.1-3.8-30.7-3.8-16.4 0-23.1 3.1-23.1 10.8 0 7.5 4.9 10.7 27.8 21.19 24.2 11.03 30.3 16.6 30.3 28 0 16.7-15.9 24.91-36.3 24.91m-101.6-.8c-1.7 0-3.5-.5-4.7-2.1l-53.9-69.8v71.2h-12.3V18.7c0-3.5 2.9-6.3 6.3-6.3 1.9 0 3.6.6 4.9 2.2l53.7 69.69V13.4h12.3v87.5c0 3.6-3 6.2-6.3 6.2"/></svg>