<svg xmlns="http://www.w3.org/2000/svg"  viewBox="0 0 466.7 467.2"><path d="M233.4 332.8c-76.7 0-139-62.2-139-138.9S156.7 55 233.4 55c76.6 0 138.9 62.2 138.9 138.9S310 332.8 233.4 332.8zm0-6c73.4 0 132.9-59.4 132.9-132.9S306.8 61 233.4 61c-73.5 0-133 59.4-133 132.9s59.5 132.9 133 132.9zm2.3-185.8l35.2 86.8-53.2-41.8 18-45zm62.5 106.8l-54.1-130.2c-1.6-3.8-4.7-5.7-8.4-5.7-3.8 0-7.1 1.9-8.6 5.7l-59.4 142.8H188l23.5-58.9 70.2 56.7c2.8 2.3 4.8 3.3 7.5 3.3 5.3 0 9.9-3.9 9.9-9.7 0-.9-.3-2.4-.9-4m-206 160.3l-15.4-35.7c-.5-1-1.3-1.6-2.4-1.6-1.1 0-2 .6-2.5 1.6L55 411.6h5.8l6.7-16.2 20 15.5c.8.7 1.4 1 2.1 1 1.5 0 2.9-1.1 2.9-2.7 0-.3-.1-.7-.3-1.1m-17.8-29.3l10 23.8-15.1-11.5 5.1-12.3zm323.2 33.4c-11.7 0-18.7-4.1-18.7-12.4 0-3.9 2.3-7.7 6.8-9.4-3.6-2.2-5.5-5.3-5.5-8.7 0-7.5 6.1-11.1 17.5-11.1 3.9 0 9.3.5 13.8 1.4l-.6 4.5c-4.8-.7-9.3-1.1-13.6-1.1-7.4 0-11.4 1.9-11.4 6.6 0 3.6 3.7 6.6 8.5 6.6h9.8c1.4 0 2.5 1 2.5 2.2 0 1.4-1.1 2.4-2.5 2.4h-10.6c-5.5 0-9 2.6-9 6.6 0 5.9 5.7 7.6 12.9 7.6 3.9 0 9.2-.5 13.4-1.4l.8 4.4c-4 1.1-9.4 1.8-14.1 1.8m-64.7-.7c-1.6 0-2.8-1.3-2.8-2.7v-37.6h5.7v35.4h22.8v4.9h-25.7zm-41.1 0h-17.1c-1.6 0-2.9-1.2-2.9-2.7v-34.9c0-1.4 1.3-2.7 2.9-2.7h14.1c8.7 0 13.9 4.1 13.9 10.4 0 3.5-2.2 6.7-5.4 8.5 4.8 1.4 8.1 5.2 8.1 9.9 0 6.4-5.6 11.5-13.6 11.5m-2.8-35.7h-11.5v12.9H289c4.6 0 7.9-2.8 7.9-6.6 0-3.9-2.9-6.3-7.9-6.3m2.7 17.4h-14.2v13.7h14.2c4.9 0 7.8-2.9 7.8-6.9 0-3.9-3-6.8-7.8-6.8m-54.4 18.3h5.7v-40.2h-5.7v40.2zm-42.6.7c-5.5 0-11.3-1.1-16.7-3l1.3-4.4c5 1.5 10.4 2.6 15.4 2.6 7 0 10.6-2.3 10.6-5.7 0-3-2.8-4.5-12.6-8.9-9.7-4.3-13.5-7.1-13.5-12.5 0-6.9 5.5-9.7 15.9-9.7 4.4 0 11.1.9 14.9 2l-.9 4.5c-4.2-1-9.5-1.7-13.8-1.7-7.4 0-10.4 1.4-10.4 4.7 0 3.2 2.2 4.6 12.5 9.2 10.9 4.8 13.7 7.2 13.7 12.1 0 7.2-7.2 10.8-16.4 10.8m-45.8-.4c-.8 0-1.6-.2-2.1-.9l-24.3-30.2v30.8H117v-38c0-1.5 1.3-2.7 2.8-2.7.9 0 1.6.2 2.2 1l24.2 30.1v-30.7h5.5v37.9c0 1.6-1.3 2.7-2.8 2.7"/></svg>