<svg xmlns="http://www.w3.org/2000/svg" fill="white" viewBox="0 0 125 34"><path d="M26.526 5a2.5 2.5 0 0 0-2.463 2.535v13.028L9.27 5.768A2.5 2.5 0 0 0 5 7.535v19.067a2.5 2.5 0 1 0 5 0v-13.03l14.795 14.797a2.5 2.5 0 0 0 4.268-1.768V7.535A2.5 2.5 0 0 0 26.526 5zm36.94.03C62.16 5.046 60.983 6.252 61 7.56v6.516h5V7.56c.017-1.33-1.2-2.547-2.53-2.53zm8.054.02a2.5 2.5 0 0 0-2.537 2.534V26.65a2.5 2.5 0 0 0 4.267 1.768l14.795-14.8v13.033a2.5 2.5 0 1 0 5 0V7.585a2.5 2.5 0 0 0-4.27-1.767L73.984 20.612V7.584A2.5 2.5 0 0 0 71.52 5.05zm26.918.003a2.5 2.5 0 0 0-1.735 4.295l7.778 7.748-7.755 7.728a2.5 2.5 0 1 0 3.53 3.542l7.767-7.74 7.767 7.74a2.5 2.5 0 1 0 3.53-3.542l-7.757-7.728 7.777-7.748a2.5 2.5 0 0 0-1.734-4.295 2.5 2.5 0 0 0-1.795.754l-7.788 7.762-7.79-7.763a2.5 2.5 0 0 0-1.794-.754zM38.14 5.06l-.687 1.282-5.312 9.656-.687 1.22.688 1.218 5.313 9.344.72 1.28H52.078l.688-1.405 3.97-8 1.78-3.625h-4.03l-10.158.03c-1.32-.018-2.535 1.18-2.535 2.5 0 1.322 1.215 2.52 2.535 2.5l6.125-.03-1.5 3.03h-7.875l-3.906-6.874 3.938-7.125h8.377l1.953 4.01h5.03L53.3 6.466 52.61 5.06H38.14zM61 16.083v10.465c-.016 1.31 1.16 2.515 2.47 2.53 1.33.018 2.547-1.2 2.53-2.53V16.082h-5z"/></svg>