<svg  fill="#87EC00" xmlns="http://www.w3.org/2000/svg" width="24" height="24" viewBox="0 0 24 24"><path d="M24 21v-6h-18v6h18zm-3-4c.553 0 1 .448 1 1s-.447 1-1 1c-.552 0-1-.448-1-1s.448-1 1-1zm-7.806 0h1.275l-.864 2h-1.274l.863-2zm-2.141 0h1.275l-.863 2h-1.275l.863-2zm-2.19 0h1.275l-.863 2h-1.275l.863-2zm-4.863.941c-2.253-.29-4-2.194-4-4.524 0-2.252 1.626-4.121 3.767-4.506.177-3.294 2.895-5.911 6.233-5.911s6.056 2.617 6.233 5.911c2.005.361 3.541 2.029 3.729 4.089h-1.991c-.279-2.105-2.674-2.333-3.65-2.401.117-1.958-.555-5.599-4.321-5.599-4.438 0-4.359 4.75-4.321 5.599-.945-.037-3.679.341-3.679 2.818 0 1.223.856 2.245 2 2.511v2.013z"/></svg>