<svg xmlns="http://www.w3.org/2000/svg" viewBox="0 0 213.4 54.2"><defs><style>.cls-1{fill:#e8390d;}.cls-2{fill:#fff;}</style></defs><title>资源 1</title><g id="图层_2" data-name="图层 2"><g id="图层_1-2" data-name="图层 1"><path class="cls-1" d="M106.7,22.4a5.77,5.77,0,0,0,.3-8.3c-.1-.1-.2-.2-.3-.2a9.15,9.15,0,0,0-5.8-1.4H93V23.9h7.9A9.72,9.72,0,0,0,106.7,22.4Z"/><path class="cls-1" d="M101.6,28H93.1V41.8h8.5a9.71,9.71,0,0,0,6.4-1.7,6.59,6.59,0,0,0,2.1-5.2,6.16,6.16,0,0,0-2.1-5.2A9.71,9.71,0,0,0,101.6,28Z"/><path class="cls-1" d="M142.4,22.4a5.77,5.77,0,0,0,.3-8.3c-.1-.1-.2-.2-.3-.2a9.15,9.15,0,0,0-5.8-1.4h-7.9V23.9h7.9A9.72,9.72,0,0,0,142.4,22.4Z"/><polygon class="cls-1" points="56.7 32 71.1 32 63.9 13.3 56.7 32"/><path class="cls-1" d="M213.4,0H0V54.2H213.4M40.6,46H8.5V42.1L33.4,12.7H9.1V8.4H40v3.9L15.1,41.7H40.5V46Zm35.8,0-3.6-9.7H55.1L51.5,46H45.9l15-37.7h6L81.9,46Zm35.7-2.8a16.06,16.06,0,0,1-10.2,2.7H87.8V8.3h13.6a16.34,16.34,0,0,1,9.4,2.4,8.13,8.13,0,0,1,3.3,6.9,8.11,8.11,0,0,1-1.7,5.4,7.53,7.53,0,0,1-4.9,2.5,10.38,10.38,0,0,1,6.1,3.4,10.34,10.34,0,0,1-1.5,14.3Zm35.6,0a16.06,16.06,0,0,1-10.2,2.7H123.4V8.3H137a16.34,16.34,0,0,1,9.4,2.4,8.21,8.21,0,0,1,3.4,6.9,8.11,8.11,0,0,1-1.7,5.4,7.53,7.53,0,0,1-4.9,2.5,10.38,10.38,0,0,1,6.1,3.4,9.42,9.42,0,0,1,2.2,6.4A9.48,9.48,0,0,1,147.7,43.2ZM165.1,46h-5.3V8.3h5.3Zm34,0L188.3,30.2,177.4,46h-5.6l13.7-19.9L173.4,8.3h5.8l9.2,13.5,9.4-13.5h5.6L191.2,26l13.7,20Z"/><path class="cls-1" d="M137.3,28h-8.5V41.8h8.5a9.29,9.29,0,0,0,6.3-1.7,6.59,6.59,0,0,0,2.1-5.2,6,6,0,0,0-2.1-5.2A9.43,9.43,0,0,0,137.3,28Z"/><polygon class="cls-2" points="203.4 8.3 197.8 8.3 188.4 21.8 179.2 8.3 173.4 8.3 185.5 26.1 171.8 46 177.4 46 188.3 30.2 199.1 46 204.9 46 191.2 25.9 203.4 8.3"/><polygon class="cls-2" points="40 12.1 40 8.3 9.1 8.3 9.1 12.6 33.4 12.6 8.5 42.1 8.5 46 40.6 46 40.6 41.7 15.1 41.7 40 12.1"/><path class="cls-2" d="M60.9,8.3,45.9,46h5.6l3.6-9.7H72.8L76.4,46H82L67,8.3ZM56.7,32l7.2-18.8L71.1,32Z"/><path class="cls-2" d="M107.4,25.6a8,8,0,0,0,5-2.5,8.28,8.28,0,0,0,1.7-5.4,8.13,8.13,0,0,0-3.3-6.9,15.61,15.61,0,0,0-9.4-2.4H87.8V46h14.1a16.7,16.7,0,0,0,10.2-2.7,9.52,9.52,0,0,0,3.6-7.8,9.42,9.42,0,0,0-2.2-6.4A11.09,11.09,0,0,0,107.4,25.6ZM93.1,12.5H101a9.83,9.83,0,0,1,5.8,1.4,5.77,5.77,0,0,1,.3,8.3c-.1.1-.2.2-.3.2a9.15,9.15,0,0,1-5.8,1.4H93.1Zm15,27.6a9.71,9.71,0,0,1-6.4,1.7H93.1V28h8.5a9.71,9.71,0,0,1,6.4,1.7,6.46,6.46,0,0,1,2.1,5.2,7.24,7.24,0,0,1-2,5.2Z"/><rect class="cls-2" x="159.8" y="8.3" width="5.3" height="37.7"/><path class="cls-2" d="M143.1,25.6a7.53,7.53,0,0,0,4.9-2.5,8.28,8.28,0,0,0,1.7-5.4,8.13,8.13,0,0,0-3.3-6.9A15.61,15.61,0,0,0,137,8.4H123.4V46h14.1a16.7,16.7,0,0,0,10.2-2.7,9.52,9.52,0,0,0,3.6-7.8,9.42,9.42,0,0,0-2.2-6.4A10.83,10.83,0,0,0,143.1,25.6ZM128.8,12.5h7.9a10.63,10.63,0,0,1,5.8,1.4,5.77,5.77,0,0,1,.3,8.3c-.1.1-.2.2-.3.2a9.15,9.15,0,0,1-5.8,1.4h-7.9Zm14.9,27.6a9.43,9.43,0,0,1-6.3,1.7h-8.6V28h8.5a9.29,9.29,0,0,1,6.3,1.7,6.46,6.46,0,0,1,2.1,5.2,6.5,6.5,0,0,1-2,5.2Z"/></g></g></svg>